<?xml version="1.0" standalone="no"?>
<!DOCTYPE svg PUBLIC "-//W3C//DTD SVG 20010904//EN"
 "http://www.w3.org/TR/2001/REC-SVG-20010904/DTD/svg10.dtd">
<svg version="1.0" xmlns="http://www.w3.org/2000/svg"
 width="700.000000pt" height="700.000000pt" viewBox="0 0 700.000000 700.000000"
 preserveAspectRatio="xMidYMid meet">
<metadata>
Created by potrace 1.11, written by Peter Selinger 2001-2013
</metadata>
<g transform="translate(0.000000,700.000000) scale(0.100000,-0.100000)"
fill="#000000" stroke="none">
<path d="M3330 6633 c-184 -28 -299 -65 -465 -149 -382 -193 -750 -577 -1084
-1132 -60 -100 -237 -442 -275 -532 -18 -40 -72 -162 -96 -215 -25 -56 -133
-358 -173 -485 -87 -275 -175 -657 -192 -825 -4 -38 -9 -72 -10 -75 -2 -3 -6
-39 -10 -80 -4 -41 -9 -88 -11 -105 -5 -39 -5 -361 0 -400 2 -16 7 -59 10 -95
50 -449 227 -872 525 -1255 62 -80 294 -314 361 -365 25 -19 51 -40 58 -48 31
-29 274 -184 362 -230 195 -102 417 -182 632 -226 121 -25 141 -28 283 -43
138 -14 438 -8 560 12 115 19 170 29 240 47 44 11 87 21 95 23 26 5 202 66
255 88 107 45 335 166 425 226 393 262 716 645 897 1061 79 182 149 410 168
540 3 25 8 52 10 60 5 18 13 74 21 150 10 81 10 413 1 502 -8 78 -41 317 -52
373 -114 588 -296 1111 -567 1632 -218 422 -437 732 -703 998 -83 83 -185 177
-228 210 -213 164 -449 278 -665 322 -71 14 -313 25 -372 16z m285 -328 c69
-9 210 -57 297 -101 231 -116 486 -343 701 -624 91 -119 277 -399 277 -417 0
-3 8 -17 19 -31 31 -45 185 -350 236 -467 26 -60 51 -114 55 -120 15 -20 144
-372 190 -519 184 -583 254 -1125 194 -1497 -2 -15 -6 -45 -9 -67 -9 -74 -64
-275 -105 -383 -131 -348 -365 -679 -633 -896 -40 -32 -78 -64 -86 -71 -21
-21 -23 -8 -7 49 9 30 18 72 22 94 3 22 10 59 15 82 5 23 12 97 16 165 8 137
8 797 0 870 l-5 47 212 -1 c275 -2 366 11 366 51 0 25 -29 48 -180 142 -165
103 -231 164 -250 234 -19 67 -96 146 -168 171 -51 18 -56 24 -66 74 -11 55
-50 180 -84 265 -39 99 -66 152 -123 238 l-39 59 39 116 c52 155 74 296 73
452 -1 69 -4 136 -7 150 -2 14 -7 39 -11 55 -63 317 -271 480 -507 397 -118
-42 -219 -133 -324 -292 -34 -51 -58 -79 -61 -70 -11 37 -78 161 -117 215
-139 196 -328 291 -500 250 -130 -31 -236 -121 -316 -269 -67 -126 -103 -263
-115 -439 -4 -51 -7 -93 -8 -94 -1 -1 -24 5 -51 13 -67 20 -196 25 -255 9
-147 -39 -265 -147 -321 -296 -27 -71 -34 -119 -33 -229 2 -197 86 -376 244
-523 l70 -65 -75 -162 c-97 -206 -182 -427 -199 -516 -2 -10 -12 -48 -21 -84
-9 -36 -18 -72 -20 -80 -27 -135 -89 -311 -161 -458 -65 -133 -65 -133 -83
-110 -50 65 -194 330 -214 393 -3 11 -18 52 -32 90 -23 60 -47 141 -60 195 -1
8 -8 33 -14 55 -47 179 -63 534 -35 760 8 61 17 133 20 160 3 28 12 82 20 120
8 39 17 86 20 105 23 142 172 661 224 775 4 11 26 67 48 125 157 414 420 894
659 1200 91 117 288 325 378 400 176 146 394 263 550 295 108 22 235 26 350
10z m792 -2852 c43 -70 92 -193 128 -319 l32 -112 -36 -20 c-47 -27 -104 -87
-130 -137 -31 -61 -39 -120 -26 -210 13 -91 12 -121 -7 -190 -7 -27 -13 -56
-12 -62 1 -7 2 -20 3 -29 1 -19 40 -16 181 14 52 11 98 18 102 16 9 -6 4 -968
-4 -1000 -4 -12 -9 -43 -13 -71 -14 -114 -77 -296 -126 -364 -51 -73 -440
-220 -669 -254 -25 -4 -56 -9 -70 -11 -191 -27 -455 -23 -655 12 -132 22 -166
31 -315 81 -358 119 -676 332 -942 630 l-37 41 31 48 c31 50 128 238 128 250
0 3 6 20 14 37 7 18 19 48 26 67 7 19 16 44 20 55 8 19 38 123 45 155 64 297
132 485 301 836 l25 52 47 -12 c102 -27 213 -16 318 30 72 32 170 131 208 212
26 54 32 60 45 49 9 -8 41 -24 71 -37 45 -20 73 -24 150 -25 88 0 101 3 160
32 67 33 154 106 185 156 10 15 20 27 24 27 3 0 22 -24 41 -52 104 -154 278
-200 444 -118 78 39 186 135 241 214 21 31 39 56 41 56 1 0 15 -21 31 -47z"/>
<path d="M3848 2993 c-47 -19 -72 -64 -65 -117 13 -92 120 -128 187 -63 28 28
33 37 33 72 0 43 -5 56 -33 83 -35 35 -76 43 -122 25z"/>
</g>
</svg>
