<?xml version="1.0" encoding="UTF-8" standalone="no"?>
<svg
   xmlns:dc="http://purl.org/dc/elements/1.1/"
   xmlns:cc="http://creativecommons.org/ns#"
   xmlns:rdf="http://www.w3.org/1999/02/22-rdf-syntax-ns#"
   xmlns:svg="http://www.w3.org/2000/svg"
   xmlns="http://www.w3.org/2000/svg"
   xmlns:sodipodi="http://sodipodi.sourceforge.net/DTD/sodipodi-0.dtd"
   xmlns:inkscape="http://www.inkscape.org/namespaces/inkscape"
   viewBox="0 0 24 24"
   width="480px"
   height="480px"
   version="1.1"
   id="svg4"
   sodipodi:docname="facebook.svg"
   inkscape:version="0.92.4 5da689c313, 2019-01-14">
  <metadata
     id="metadata10">
    <rdf:RDF>
      <cc:Work
         rdf:about="">
        <dc:format>image/svg+xml</dc:format>
        <dc:type
           rdf:resource="http://purl.org/dc/dcmitype/StillImage" />
        <dc:title></dc:title>
      </cc:Work>
    </rdf:RDF>
  </metadata>
  <defs
     id="defs8" />
  <sodipodi:namedview
     pagecolor="#ffffff"
     bordercolor="#666666"
     borderopacity="1"
     objecttolerance="10"
     gridtolerance="10"
     guidetolerance="10"
     inkscape:pageopacity="0"
     inkscape:pageshadow="2"
     inkscape:window-width="1920"
     inkscape:window-height="1051"
     id="namedview6"
     showgrid="false"
     inkscape:zoom="1.3906433"
     inkscape:cx="76.938519"
     inkscape:cy="136.79397"
     inkscape:window-x="0"
     inkscape:window-y="0"
     inkscape:window-maximized="1"
     inkscape:current-layer="svg4" />
  <path
     d="M19,3H5C3.895,3,3,3.895,3,5v14c0,1.105,0.895,2,2,2h7.621v-6.961h-2.343v-2.725h2.343V9.309 c0-2.324,1.421-3.591,3.495-3.591c0.699-0.002,1.397,0.034,2.092,0.105v2.43h-1.428c-1.13,0-1.35,0.534-1.35,1.322v1.735h2.7 l-0.351,2.725h-2.365V21H19c1.105,0,2-0.895,2-2V5C21,3.895,20.105,3,19,3z"
     id="path2" />
</svg>
