<?xml version="1.0" encoding="UTF-8" standalone="no"?>
<svg
   xmlns:dc="http://purl.org/dc/elements/1.1/"
   xmlns:cc="http://creativecommons.org/ns#"
   xmlns:rdf="http://www.w3.org/1999/02/22-rdf-syntax-ns#"
   xmlns:svg="http://www.w3.org/2000/svg"
   xmlns="http://www.w3.org/2000/svg"
   xmlns:sodipodi="http://sodipodi.sourceforge.net/DTD/sodipodi-0.dtd"
   xmlns:inkscape="http://www.inkscape.org/namespaces/inkscape"
   viewBox="0 0 18 18"
   width="360"
   height="360"
   version="1.1"
   id="svg4"
   sodipodi:docname="instagram.svg"
   inkscape:version="0.92.4 5da689c313, 2019-01-14">
  <metadata
     id="metadata10">
    <rdf:RDF>
      <cc:Work
         rdf:about="">
        <dc:format>image/svg+xml</dc:format>
        <dc:type
           rdf:resource="http://purl.org/dc/dcmitype/StillImage" />
        <dc:title></dc:title>
      </cc:Work>
    </rdf:RDF>
  </metadata>
  <defs
     id="defs8" />
  <sodipodi:namedview
     pagecolor="#ffffff"
     bordercolor="#666666"
     borderopacity="1"
     objecttolerance="10"
     gridtolerance="10"
     guidetolerance="10"
     inkscape:pageopacity="0"
     inkscape:pageshadow="2"
     inkscape:window-width="923"
     inkscape:window-height="632"
     id="namedview6"
     showgrid="false"
     fit-margin-top="0"
     fit-margin-left="0"
     fit-margin-right="0"
     fit-margin-bottom="0"
     inkscape:zoom="0.49166667"
     inkscape:cx="183.75688"
     inkscape:cy="180"
     inkscape:window-x="570"
     inkscape:window-y="184"
     inkscape:window-maximized="0"
     inkscape:current-layer="svg4" />
  <path
     d="M 5,0 C 2.239,0 0,2.239 0,5 v 8 c 0,2.761 2.239,5 5,5 h 8 c 2.761,0 5,-2.239 5,-5 V 5 C 18,2.239 15.761,0 13,0 Z m 10,2 c 0.552,0 1,0.448 1,1 0,0.552 -0.448,1 -1,1 C 14.448,4 14,3.552 14,3 14,2.448 14.448,2 15,2 Z M 9,4 c 2.761,0 5,2.239 5,5 0,2.761 -2.239,5 -5,5 C 6.239,14 4,11.761 4,9 4,6.239 6.239,4 9,4 Z M 9,6 A 3,3 0 0 0 6,9 3,3 0 0 0 9,12 3,3 0 0 0 12,9 3,3 0 0 0 9,6 Z"
     id="path2"
     inkscape:connector-curvature="0" />
</svg>
