<?xml version="1.0" encoding="UTF-8" standalone="no"?>
<svg
   xmlns:dc="http://purl.org/dc/elements/1.1/"
   xmlns:cc="http://creativecommons.org/ns#"
   xmlns:rdf="http://www.w3.org/1999/02/22-rdf-syntax-ns#"
   xmlns:svg="http://www.w3.org/2000/svg"
   xmlns="http://www.w3.org/2000/svg"
   xmlns:sodipodi="http://sodipodi.sourceforge.net/DTD/sodipodi-0.dtd"
   xmlns:inkscape="http://www.inkscape.org/namespaces/inkscape"
   viewBox="0 0 18 18"
   width="360"
   height="360"
   version="1.1"
   id="svg4"
   sodipodi:docname="twitter.svg"
   inkscape:version="0.92.4 5da689c313, 2019-01-14">
  <metadata
     id="metadata10">
    <rdf:RDF>
      <cc:Work
         rdf:about="">
        <dc:format>image/svg+xml</dc:format>
        <dc:type
           rdf:resource="http://purl.org/dc/dcmitype/StillImage" />
        <dc:title></dc:title>
      </cc:Work>
    </rdf:RDF>
  </metadata>
  <defs
     id="defs8" />
  <sodipodi:namedview
     pagecolor="#ffffff"
     bordercolor="#666666"
     borderopacity="1"
     objecttolerance="10"
     gridtolerance="10"
     guidetolerance="10"
     inkscape:pageopacity="0"
     inkscape:pageshadow="2"
     inkscape:window-width="1166"
     inkscape:window-height="744"
     id="namedview6"
     showgrid="false"
     fit-margin-top="0"
     fit-margin-left="0"
     fit-margin-right="0"
     fit-margin-bottom="0"
     inkscape:zoom="0.49166667"
     inkscape:cx="180"
     inkscape:cy="180"
     inkscape:window-x="0"
     inkscape:window-y="0"
     inkscape:window-maximized="0"
     inkscape:current-layer="svg4" />
  <path
     d="M 16,0 H 2 C 0.895,0 0,0.895 0,2 v 14 c 0,1.105 0.895,2 2,2 h 14 c 1.105,0 2,-0.895 2,-2 V 2 C 18,0.895 17.105,0 16,0 Z m -1.95,6.514 c 0,0.086 0,0.171 0,0.343 0,3.257 -2.486,7.029 -7.029,7.029 -1.371,0 -2.657,-0.429 -3.771,-1.114 0.171,0 0.429,0 0.6,0 1.114,0 2.229,-0.429 3.086,-1.029 -1.114,0 -1.971,-0.771 -2.314,-1.714 0.171,0 0.343,0.086 0.429,0.086 0.257,0 0.429,0 0.686,-0.086 C 4.623,9.772 3.766,8.829 3.766,7.629 4.109,7.8 4.452,7.886 4.88,7.972 4.194,7.372 3.766,6.686 3.766,5.829 c 0,-0.429 0.086,-0.857 0.343,-1.2 1.2,1.457 3,2.486 5.057,2.571 0,-0.171 -0.086,-0.343 -0.086,-0.6 0,-1.371 1.114,-2.486 2.486,-2.486 0.686,0 1.371,0.257 1.8,0.771 0.6,-0.086 1.114,-0.343 1.543,-0.6 -0.171,0.6 -0.6,1.029 -1.114,1.371 0.514,-0.086 0.943,-0.171 1.457,-0.429 -0.345,0.516 -0.773,0.944 -1.202,1.287 z"
     id="path2"
     inkscape:connector-curvature="0" />
</svg>
