<?xml version="1.0" standalone="no"?>
<!DOCTYPE svg PUBLIC "-//W3C//DTD SVG 20010904//EN"
 "http://www.w3.org/TR/2001/REC-SVG-20010904/DTD/svg10.dtd">
<svg version="1.0" xmlns="http://www.w3.org/2000/svg"
 width="64.000000pt" height="64.000000pt" viewBox="0 0 64.000000 64.000000"
 preserveAspectRatio="xMidYMid meet">
<metadata>
Created by potrace 1.11, written by Peter Selinger 2001-2013
</metadata>
<g transform="translate(0.000000,64.000000) scale(0.100000,-0.100000)"
fill="#000000" stroke="none">
<path d="M437 610 c-30 -24 -38 -25 -31 -5 9 22 -14 18 -26 -4 -12 -23 -5 -47
16 -55 11 -4 12 -10 4 -23 -5 -10 -13 -34 -18 -53 -7 -29 -19 -41 -69 -71 -45
-26 -59 -39 -53 -50 14 -25 22 -79 12 -79 -5 0 -17 21 -27 48 -21 54 -43 92
-65 109 -17 14 -34 17 -26 5 3 -5 -10 -14 -27 -20 -47 -17 -72 -64 -72 -137 0
-57 19 -125 35 -125 8 0 20 83 20 136 0 46 30 79 62 71 26 -7 76 -72 64 -84
-3 -4 -6 -2 -6 4 0 6 -16 20 -35 32 -30 18 -36 18 -49 5 -19 -18 -30 -93 -22
-139 11 -54 26 -52 26 4 0 27 3 56 6 65 8 21 58 21 75 0 11 -14 10 -16 -6 -14
-41 5 -45 0 -45 -42 0 -24 5 -50 10 -58 7 -11 10 -2 10 33 0 41 3 48 17 45 12
-2 20 -16 24 -41 3 -20 13 -45 22 -55 27 -29 22 -61 -10 -68 -62 -15 -71 -44
-13 -44 31 0 43 5 55 24 9 13 26 27 38 30 17 5 19 8 8 15 -18 12 3 51 29 51
25 0 35 -17 20 -35 -11 -13 1 -15 83 -15 53 0 98 4 101 8 11 18 -41 34 -83 27
l-42 -7 7 29 c23 102 23 103 55 103 34 0 48 23 31 51 -7 10 -12 27 -13 36 0
14 -2 13 -9 -4 -5 -13 -14 -23 -21 -23 -7 0 -8 6 -3 18 4 9 8 34 9 55 0 25 4
36 13 32 18 -7 15 6 -13 47 l-25 38 24 6 c14 3 30 3 35 -1 15 -9 14 28 -1 43
-7 7 -25 12 -40 12 -15 0 -28 5 -28 10 0 6 12 10 28 10 l27 1 -23 19 c-13 10
-30 16 -37 13 -24 -9 -17 13 8 25 15 7 17 11 6 11 -9 1 -28 -8 -42 -19z"/>
</g>
</svg>
